<svg xmlns="http://www.w3.org/2000/svg" viewBox="0 0 640 200" width="640">
  <defs>
    <marker id="arr3" viewBox="0 0 10 10" refX="8" refY="5"
            markerWidth="6" markerHeight="6" orient="auto-start-reverse">
      <path d="M2 1L8 5L2 9" fill="none" stroke="#888780"
            stroke-width="1.5" stroke-linecap="round" stroke-linejoin="round"/>
    </marker>
  </defs>

  <!-- schema.toml -->
  <rect x="20" y="60" width="155" height="80" rx="8"
        fill="#FAEEDA" stroke="#854F0B" stroke-width="0.75"/>
  <text x="97" y="84" font-family="monospace" font-size="12" font-weight="600"
        fill="#412402" text-anchor="middle">schema.toml</text>
  <text x="97" y="102" font-family="sans-serif" font-size="10"
        fill="#854F0B" text-anchor="middle">record shapes</text>
  <text x="97" y="118" font-family="sans-serif" font-size="10"
        fill="#854F0B" text-anchor="middle">field types</text>
  <text x="97" y="134" font-family="sans-serif" font-size="10"
        fill="#854F0B" text-anchor="middle">mapping rules</text>

  <!-- build.rs -->
  <line x1="175" y1="100" x2="218" y2="100"
        stroke="#888780" stroke-width="1" marker-end="url(#arr3)"/>
  <rect x="220" y="68" width="120" height="64" rx="8"
        fill="#F1EFE8" stroke="#5F5E5A" stroke-width="0.75"/>
  <text x="280" y="92" font-family="monospace" font-size="12" font-weight="600"
        fill="#2C2C2A" text-anchor="middle">build.rs</text>
  <text x="280" y="110" font-family="sans-serif" font-size="10"
        fill="#5F5E5A" text-anchor="middle">compile-time</text>
  <text x="280" y="126" font-family="sans-serif" font-size="10"
        fill="#5F5E5A" text-anchor="middle">code generator</text>

  <!-- four outputs -->
  <line x1="340" y1="100" x2="383" y2="100"
        stroke="#888780" stroke-width="1" marker-end="url(#arr3)"/>

  <rect x="385" y="18"  width="128" height="28" rx="6"
        fill="#E1F5EE" stroke="#0F6E56" stroke-width="0.75"/>
  <text x="449" y="36" font-family="monospace" font-size="10"
        fill="#085041" text-anchor="middle">records.rs  (structs)</text>

  <rect x="385" y="54"  width="128" height="28" rx="6"
        fill="#E1F5EE" stroke="#0F6E56" stroke-width="0.75"/>
  <text x="449" y="72" font-family="monospace" font-size="10"
        fill="#085041" text-anchor="middle">envelopes.rs (HasEnvelope)</text>

  <rect x="385" y="90"  width="128" height="28" rx="6"
        fill="#E1F5EE" stroke="#0F6E56" stroke-width="0.75"/>
  <text x="449" y="108" font-family="monospace" font-size="10"
        fill="#085041" text-anchor="middle">upserts.rs (Upsertable)</text>

  <rect x="385" y="126" width="128" height="28" rx="6"
        fill="#E1F5EE" stroke="#0F6E56" stroke-width="0.75"/>
  <text x="449" y="144" font-family="monospace" font-size="10"
        fill="#085041" text-anchor="middle">transforms.rs (Transform)</text>

  <!-- fan lines from arrow endpoint to boxes -->
  <line x1="383" y1="100" x2="385" y2="32"  stroke="#1D9E75" stroke-width="0.75"/>
  <line x1="383" y1="100" x2="385" y2="68"  stroke="#1D9E75" stroke-width="0.75"/>
  <line x1="383" y1="100" x2="385" y2="104" stroke="#1D9E75" stroke-width="0.75"/>
  <line x1="383" y1="100" x2="385" y2="140" stroke="#1D9E75" stroke-width="0.75"/>

  <!-- trait impls -->
  <line x1="513" y1="32"  x2="540" y2="32"  stroke="#888780" stroke-width="0.75"/>
  <line x1="513" y1="68"  x2="540" y2="68"  stroke="#888780" stroke-width="0.75"/>
  <line x1="513" y1="104" x2="540" y2="104" stroke="#888780" stroke-width="0.75"/>
  <line x1="513" y1="140" x2="540" y2="140" stroke="#888780" stroke-width="0.75"/>

  <text x="543" y="36"  font-family="sans-serif" font-size="10" fill="#5F5E5A">ApiUser, DbUser</text>
  <text x="543" y="72"  font-family="sans-serif" font-size="10" fill="#5F5E5A">impl HasEnvelope</text>
  <text x="543" y="108" font-family="sans-serif" font-size="10" fill="#5F5E5A">impl Upsertable</text>
  <text x="543" y="144" font-family="sans-serif" font-size="10" fill="#5F5E5A">impl Transform</text>
</svg>
